<svg width="80" height="80" fill="none" xmlns="http://www.w3.org/2000/svg"><g clip-path="url(#clip0_1_3323)"><path d="M58.667 73.333c0 2.947-8.36 5.334-18.667 5.334-10.307 0-18.667-2.387-18.667-5.334 0-2.4 5.547-4.426 13.187-5.08l2.733 3.707a3.439 3.439 0 005.494 0l2.72-3.707h.013c7.64.654 13.187 2.68 13.187 5.08z" fill="#607D8B"/><path d="M45.48 68.253h-.013l-.327.446c5.685.901 9.527 2.634 9.527 4.634 0 2.754-7.3 5.016-16.667 5.302.657.02 1.324.032 2 .032 10.307 0 18.667-2.387 18.667-5.334 0-2.4-5.547-4.426-13.187-5.08z" fill="#37474F"/><path d="M70.666 32A30.673 30.673 0 0151.12 60.56l-5.64 7.693h-.013l-2.72 3.707a3.439 3.439 0 01-5.494 0l-2.733-3.707-5.64-7.693C14.466 54.945 6.492 39.472 10.285 24.475 14.078 9.478 28.45-.345 43.8 1.569 59.15 3.482 70.671 16.53 70.666 32z" fill="#C2ECB8"/><path d="M40 1.333c-.667 0-1.333.03-2 .072 14.346.931 26.118 11.708 28.308 25.916 2.19 14.209-5.788 28.03-19.188 33.239l-5.64 7.693h-.013l-2.72 3.707a3.38 3.38 0 01-.747.71 3.428 3.428 0 004.747-.71l2.72-3.707h.013l5.64-7.693c13.752-5.345 21.745-19.728 19.022-34.229C67.42 11.831 54.754 1.327 40 1.333z" fill="#C2ECB8"/><path d="M40 57.333c13.991 0 25.333-11.342 25.333-25.333C65.333 18.009 53.991 6.667 40 6.667 26.009 6.667 14.666 18.009 14.666 32c0 13.991 11.343 25.333 25.334 25.333z" fill="#A4DCF8"/><path d="M40 6.667c-.675 0-1.333.049-2 .101C51.17 7.8 61.332 18.788 61.332 32c0 13.211-10.161 24.2-23.332 25.232a25.55 25.55 0 002 .101c13.991 0 25.333-11.342 25.333-25.333C65.333 18.009 53.991 6.667 40 6.667z" fill="#53B2E2"/><path d="M54.28 30.733a24.975 24.975 0 00-4.947 14.36v1.574a2.68 2.68 0 01-2.907 2.653A2.768 2.768 0 0144 46.52v-4.973a4.159 4.159 0 00-3.787-4.214 4 4 0 00-4.213 4v5.334a2.68 2.68 0 01-2.907 2.653 2.768 2.768 0 01-2.427-2.8v-1.427a24.975 24.975 0 00-4.946-14.36A9.333 9.333 0 0140 18.813a9.333 9.333 0 0114.28 11.92z" fill="#F5F5F5"/><path d="M36.213 37.333a4 4 0 00-4.213 4v5.334c0 .634-.233 1.246-.654 1.721a2.56 2.56 0 001.747.933A2.68 2.68 0 0036 46.667v-5.334c0-1.412.748-2.72 1.966-3.434a3.756 3.756 0 00-1.753-.566zM55.867 23.72a9.32 9.32 0 00-7.254-7.52 9.432 9.432 0 00-3.924.021 9.325 9.325 0 015.59 14.512 24.974 24.974 0 00-4.946 14.36v1.574c0 .634-.232 1.246-.653 1.721a2.56 2.56 0 001.747.933 2.68 2.68 0 002.906-2.654v-1.574a24.974 24.974 0 014.947-14.36 9.308 9.308 0 001.587-7.013z" fill="#CFD8DC"/><path d="M33.185 31.272a.716.716 0 01-1.277.457 9.346 9.346 0 01-2.575-5.688c0-2.338 1.39-4.708 4.05-4.708a5.164 5.164 0 013.626 1.57 1 1 0 01-.266 1.648c-1.45.684-3.631 2.429-3.558 6.721z" fill="#F5F5F5"/><path d="M40 5.333c-14.728 0-26.667 11.94-26.667 26.667 0 14.728 11.94 26.667 26.667 26.667 14.727 0 26.667-11.94 26.667-26.667C66.65 17.28 54.72 5.35 40 5.333zM40 56c-13.255 0-24-10.745-24-24S26.745 8 40 8s24 10.745 24 24c-.016 13.248-10.752 23.985-24 24z" fill="#3F446C"/><path d="M40 0C24.678-.007 11.503 10.852 8.583 25.893c-2.92 15.041 5.237 30.04 19.449 35.766l4.055 5.52C27.57 67.768 20 69.349 20 73.333 20 77.915 30.367 80 40 80s20-2.085 20-6.667c0-3.965-7.504-5.552-12.09-6.15l4.058-5.524c14.212-5.726 22.368-20.725 19.448-35.766C68.498 10.852 55.322-.007 40 0zm17.333 73.333c0 1.2-5.897 4-17.333 4-11.436 0-17.333-2.8-17.333-4 0-.894 3.413-2.908 11.238-3.68l2.283 3.107a4.77 4.77 0 007.632-.01l2.267-3.097c7.833.772 11.246 2.786 11.246 3.68zm-6.692-14.017a29.07 29.07 0 01-5.532 1.544 1.333 1.333 0 10.454 2.627 31.18 31.18 0 002.082-.444l-5.965 8.116a2.173 2.173 0 01-3.352.012l-5.97-8.134c.693.17 1.387.324 2.082.444a1.333 1.333 0 10.453-2.626 29.024 29.024 0 01-5.532-1.544C16.21 54.19 8.57 40.432 11.173 26.56 13.778 12.69 25.89 2.641 40.003 2.641c14.112 0 26.224 10.05 28.829 23.92 2.605 13.87-5.037 27.629-18.188 32.749l-.003.005z" fill="#3F446C"/><path d="M48.876 14.892A10.656 10.656 0 0040 17.012a10.667 10.667 0 00-15.373 14.49 23.657 23.657 0 014.706 13.585v1.43a4.102 4.102 0 003.651 4.134 4.016 4.016 0 004.35-3.984v-5.334c-.004-.73.295-1.43.826-1.933a2.68 2.68 0 011.98-.733 2.819 2.819 0 012.527 2.886v4.964a4.102 4.102 0 003.65 4.134 4.02 4.02 0 004.35-3.984v-1.58A23.665 23.665 0 0155.373 31.5a10.667 10.667 0 00-6.497-16.608zm4.323 15.067A26.3 26.3 0 0048 45.087v1.58c0 .36-.148.704-.41.95-.277.273-.66.41-1.047.378a1.444 1.444 0 01-1.21-1.478v-4.964a5.445 5.445 0 00-5.058-5.546h-.279a5.333 5.333 0 00-5.333 5.333v5.333c0 .36-.148.704-.41.951a1.32 1.32 0 01-1.048.377A1.444 1.444 0 0132 46.517v-1.43a26.292 26.292 0 00-5.2-15.128 8.047 8.047 0 01-1.35-6.024 7.99 7.99 0 0113.59-4.194s.013.007.019.012c.005.006.008.015.014.02l.702.682a11.222 11.222 0 005.2 3.497 1.333 1.333 0 10.712-2.57 8.102 8.102 0 01-3.712-2.509 8.027 8.027 0 016.368-1.369 7.935 7.935 0 016.205 6.43 8.043 8.043 0 01-1.348 6.023l-.001.002z" fill="#3F446C"/><path d="M33.383 20C29.887 20 28 23.113 28 26.041a10.461 10.461 0 002.875 6.534 2.05 2.05 0 003.644-1.32c-.059-3.422 1.486-4.878 2.792-5.495a2.332 2.332 0 00.632-3.805A6.447 6.447 0 0033.383 20zm-1.44 9.535a6.518 6.518 0 01-1.276-3.494c0-1.168.568-3.374 2.716-3.374a3.66 3.66 0 012.368.896 7.556 7.556 0 00-3.808 5.972z" fill="#3F446C"/></g><defs><clipPath id="clip0_1_3323"><path fill="#fff" d="M0 0h80v80H0z"/></clipPath></defs></svg>