<svg width="75" height="75" fill="none" xmlns="http://www.w3.org/2000/svg"><g clip-path="url(#clip0_1_3410)"><path d="M37.423 1.25h.034S29.669 13.303 7.469 13.738a1.25 1.25 0 00-1.238 1.244V40c0 4.076 2.074 8.814 3.79 12.289 5.636 11.4 15.97 18.5 27.402 21.46h.115c11.433-2.956 21.767-10.06 27.402-21.46 1.717-3.475 3.79-8.213 3.79-12.289V14.982a1.25 1.25 0 00-1.238-1.244C45.293 13.303 37.504 1.25 37.504 1.25h-.081z" fill="#F44335"/><path d="M68.73 14.988V40c0 4.075-2.074 8.813-3.787 12.288-5.637 11.4-15.975 18.5-27.4 21.462h-.037v-1.125a40.803 40.803 0 0023.687-20.337C62.905 48.813 64.98 44.075 64.98 40V14.988a1.26 1.26 0 00-.988-1.225l.013-.2c1.125.1 2.275.15 3.487.175a1.25 1.25 0 011.238 1.25z" fill="#D6382C"/><path d="M64.98 14.988V40c0 4.075-2.075 8.813-3.787 12.288a40.802 40.802 0 01-23.687 20.337V1.25s6.9 10.687 26.25 12.288c.087.012.162.012.25.024l-.013.2c.575.128.985.636.988 1.226z" fill="#F44335"/><path d="M53.656 28.737l.074.013c0 3.75-3.75 8.75-3.75 15 0 4.65-.687 11.388-1.05 14.525a1.946 1.946 0 01-3.812.287c.033-.092.053-.19.063-.287.362-3.137 1.05-9.875 1.05-14.525 0-6.25 3.75-11.25 3.75-15l-.076-.013a10 10 0 00-8.05-11.063 10.403 10.403 0 011.876-.174c5.522 0 10 4.477 10 10 0 .414-.025.827-.075 1.237z" fill="#CFD8DC"/><path d="M49.905 28.737l.075.013c0 3.75-3.75 8.75-3.75 15 0 4.65-.687 11.388-1.05 14.525-.008.098-.03.195-.062.287a1.787 1.787 0 01-.075-.524c.012-4.326-.713-14.288-7.563-14.288a5.894 5.894 0 00-1.875.287c-5.112 1.65-5.7 10.113-5.687 14A1.951 1.951 0 0127.968 60a1.921 1.921 0 01-1.875-1.438 1.178 1.178 0 01-.062-.287c-.363-3.137-1.05-9.875-1.05-14.525 0-6.25-3.75-11.25-3.75-15l.074-.013A10 10 0 0131.23 17.5a9.937 9.937 0 013.913.789c.153.067.313.121.475.162a5.941 5.941 0 004.225-.162 9.898 9.898 0 012.013-.613 10 10 0 018.05 11.062z" fill="#F4F4F4"/><path d="M21.582 33.57a25.046 25.046 0 012.149 8.93c0 5.114.808 12.52 1.058 14.666a3.2 3.2 0 006.375-.382c-.007-2.592.275-8.921 3.052-11.705a4.666 4.666 0 016.522 0c2.777 2.784 3.059 9.113 3.051 11.708a3.2 3.2 0 006.375.376c.258-2.143 1.067-9.55 1.067-14.663.16-3.084.888-6.111 2.148-8.93a17.997 17.997 0 001.602-6.07c0-.103-.013-.207-.038-.308a11.25 11.25 0 00-15.587-11.306 4.782 4.782 0 01-3.725 0 11.262 11.262 0 00-15.613 11.306 1.396 1.396 0 00-.038.308 18.012 18.012 0 001.602 6.07zm9.649-16.07a8.683 8.683 0 013.417.692 7.317 7.317 0 005.681 0 8.75 8.75 0 0112.087 9.14A8.761 8.761 0 0143.73 35a1.25 1.25 0 100 2.5 11.2 11.2 0 006.261-1.92 21.689 21.689 0 00-1.261 6.92c0 4.98-.798 12.266-1.041 14.384a.692.692 0 01-.697.616.706.706 0 01-.7-.709c.01-3.607-.467-10.155-3.78-13.477a7.166 7.166 0 00-10.064 0c-3.313 3.322-3.791 9.875-3.78 13.473a.708.708 0 01-.7.713.692.692 0 01-.697-.619c-.244-2.115-1.041-9.401-1.041-14.381a21.689 21.689 0 00-1.262-6.92 11.201 11.201 0 006.262 1.92 1.25 1.25 0 100-2.5 8.762 8.762 0 01-8.685-7.666A8.767 8.767 0 0131.23 17.5z" fill="#3F446C"/><path d="M37.106 74.96c.14.026.284.04.427.04.105 0 .21-.014.313-.04C50.62 71.656 60.638 63.8 66.054 52.843 67.743 49.437 69.981 44.4 69.981 40V14.982a2.52 2.52 0 00-2.465-2.495C47.843 12.103 39.796 2.25 38.688.76a1.25 1.25 0 00-1.15-.76h-.115c-.48-.001-.917.28-1.116.716-.963 1.333-8.886 11.375-28.861 11.771a2.52 2.52 0 00-2.466 2.495V40c0 4.401 2.238 9.437 3.922 12.841 5.416 10.96 15.433 18.815 28.204 22.119zM7.494 14.988c18.413-.363 27.187-8.46 29.986-11.727 2.8 3.268 11.577 11.364 30 11.72V40c0 3.875-2.09 8.554-3.662 11.735-5.054 10.224-14.4 17.581-26.337 20.739-11.938-3.158-21.284-10.515-26.338-20.74C9.571 48.554 7.48 43.874 7.48 40l.014-25.012z" fill="#3F446C"/></g><defs><clipPath id="clip0_1_3410"><path fill="#fff" d="M0 0h75v75H0z"/></clipPath></defs></svg>