<svg width="75" height="75" fill="none" xmlns="http://www.w3.org/2000/svg"><g clip-path="url(#clip0_1_3420)"><path d="M43.587 51.788c-1.15 2.737-2.975 4.462-6.087 4.462-11.25 0-5-16.25-11.25-16.25s0 16.25-11.25 16.25c-7.5 0-7.5-10-8.75-20S1.25 25 1.25 15 5 1.25 12.5 1.25c4.7 0 6.45 1.475 8.65 2.575a10.477 10.477 0 0110.2 0c2.2-1.1 3.95-2.575 8.65-2.575 6.487 0 10.175 2.813 11.05 10.05a21.25 21.25 0 00-7.462 40.487z" fill="#F5F5F5"/><path d="M31.25 32.5c-.004-11.175 8.651-20.442 19.8-21.2C50.175 4.062 46.488 1.25 40 1.25c-.626 0-1.252.032-1.875.096 5.319.529 8.384 3.45 9.17 9.954a21.25 21.25 0 00-7.462 40.487 6.535 6.535 0 01-4.384 4.25 9.173 9.173 0 002.051.213c3.113 0 4.938-1.725 6.088-4.462A21.23 21.23 0 0131.25 32.5z" fill="#CFD8DC"/><path d="M73.75 32.5c0 10.768-8.057 19.833-18.75 21.1-1.66.2-3.34.2-5 0a20.91 20.91 0 01-6.412-1.813A21.25 21.25 0 0152.5 11.25c11.736 0 21.25 9.514 21.25 21.25z" fill="#C5D0DC"/><path d="M52.5 11.25c-.487 0-.975.012-1.45.05-.135.009-.265.035-.399.046 10.84.97 19.193 9.976 19.347 20.857.154 10.882-7.94 20.12-18.748 21.397-.205.025-.416.038-.625.056.616.056 1.24.094 1.875.094.836.001 1.67-.05 2.5-.15 11.162-1.333 19.355-11.13 18.693-22.352C73.03 20.025 63.742 11.26 52.5 11.25z" fill="#C5D0DC"/><path d="M52.5 48.75c8.975 0 16.25-7.275 16.25-16.25S61.475 16.25 52.5 16.25 36.25 23.525 36.25 32.5s7.275 16.25 16.25 16.25z" fill="#C2ECB8"/><path d="M52.5 16.25c-.627.003-1.253.041-1.875.116 8.193.948 14.376 7.886 14.376 16.134 0 8.248-6.183 15.186-14.376 16.134A16.25 16.25 0 1052.5 16.25z" fill="#85BA77"/><path d="M56.25 61.25V70a3.75 3.75 0 11-7.5 0v-8.75c0-.69.56-1.25 1.25-1.25h5c.69 0 1.25.56 1.25 1.25z" fill="#C5D0DC"/><path d="M55 60h-3.75c.69 0 1.25.56 1.25 1.25V70a3.727 3.727 0 01-1.875 3.231A3.728 3.728 0 0056.25 70v-8.75c0-.69-.56-1.25-1.25-1.25z" fill="#C5D0DC"/><path d="M55 53.6V60h-5v-6.4c1.66.2 3.34.2 5 0z" fill="#7F8E94"/><path d="M58.75 30H55v-3.75a2.5 2.5 0 00-5 0V30h-3.75a2.5 2.5 0 000 5H50v3.75a2.5 2.5 0 005 0V35h3.75a2.5 2.5 0 000-5z" fill="#F5F5F5"/><path d="M52.5 10c-.125 0-.25.018-.375.019C50.956 3.196 47.084 0 40 0a14.821 14.821 0 00-8.167 2.154c-.16.087-.323.17-.483.25a11.791 11.791 0 00-10.2 0c-.16-.086-.322-.169-.482-.25A14.821 14.821 0 0012.5 0C3.973 0 0 4.766 0 15a28.088 28.088 0 002.434 11.887 34.961 34.961 0 012.576 9.518c.158 1.264.295 2.527.431 3.771.973 8.909 1.89 17.324 9.56 17.324 7.542 0 8.374-6.345 8.984-10.977.481-3.667.841-5.273 2.265-5.273 1.424 0 1.784 1.606 2.265 5.273.61 4.632 1.443 10.977 8.985 10.977a7.231 7.231 0 006.696-4.108 22.237 22.237 0 004.554 1.27v4.435a2.491 2.491 0 00-1.25 2.153V70a5 5 0 0010 0v-8.75a2.491 2.491 0 00-1.25-2.153v-4.436c11.53-1.946 19.644-12.403 18.665-24.055C73.937 18.954 64.193 9.996 52.5 10zm-15 45c-4.976 0-5.807-3.486-6.5-8.803-.465-3.49-.985-7.447-4.75-7.447s-4.285 3.956-4.75 7.447C20.808 51.514 19.976 55 15 55c-5.164 0-6.052-5.736-7.074-15.096-.137-1.25-.276-2.533-.436-3.809A37.625 37.625 0 004.76 25.97 25.664 25.664 0 012.5 15c0-8.875 2.898-12.5 10-12.5a12.02 12.02 0 016.29 1.481 10.695 10.695 0 00-2.409 2.96 1.25 1.25 0 002.234 1.125A8.625 8.625 0 0126.25 3.75a8.625 8.625 0 017.631 4.309A1.25 1.25 0 0036.12 6.94a10.693 10.693 0 00-2.409-2.96A12.02 12.02 0 0140 2.5c5.695 0 8.625 2.324 9.618 7.706a22.477 22.477 0 00-7.7 42.139A4.7 4.7 0 0137.5 55zM55 70a2.5 2.5 0 01-5 0v-8.75h5V70zm-1.25-11.25h-2.5v-3.814c.416.024.828.064 1.25.064.423 0 .834-.04 1.25-.064v3.814zM52.5 52.5c-11.046 0-20-8.954-20-20s8.954-20 20-20 20 8.954 20 20c-.013 11.04-8.96 19.987-20 20z" fill="#3F446C"/><path d="M52.5 15C42.835 15 35 22.835 35 32.5S42.835 50 52.5 50 70 42.165 70 32.5c-.01-9.66-7.84-17.49-17.5-17.5zm0 32.5c-8.284 0-15-6.716-15-15 0-8.284 6.716-15 15-15 8.284 0 15 6.716 15 15-.009 8.28-6.72 14.991-15 15z" fill="#3F446C"/><path d="M58.75 28.75h-2.5v-2.5a3.75 3.75 0 10-7.5 0v2.5h-2.5a3.75 3.75 0 100 7.5h2.5v2.5a3.75 3.75 0 107.5 0v-2.5h2.5a3.75 3.75 0 100-7.5zm0 5H55c-.69 0-1.25.56-1.25 1.25v3.75a1.25 1.25 0 11-2.5 0V35c0-.69-.56-1.25-1.25-1.25h-3.75a1.25 1.25 0 110-2.5H50c.69 0 1.25-.56 1.25-1.25v-3.75a1.25 1.25 0 112.5 0V30c0 .69.56 1.25 1.25 1.25h3.75a1.25 1.25 0 110 2.5z" fill="#3F446C"/></g><defs><clipPath id="clip0_1_3420"><path fill="#fff" d="M0 0h75v75H0z"/></clipPath></defs></svg>