<svg width="80" height="80" fill="none" xmlns="http://www.w3.org/2000/svg"><g clip-path="url(#clip0_1_3346)"><path d="M41.149 55.625V73.88h10.595V55.938l-10.595-.313z" fill="#C5D0DC"/><path d="M51.744 74.817H41.15a.937.937 0 01-.938-.937V56.313a.938.938 0 011.875 0v16.63h8.72v-15.92a.938.938 0 011.876 0V73.88a.938.938 0 01-.938.938z" fill="#3F446C"/><path d="M24.928 73.438h27.75a5.739 5.739 0 015.329 3.608.788.788 0 01-.732 1.079H20.33a.787.787 0 01-.731-1.08 5.739 5.739 0 015.329-3.608z" fill="#607D8B"/><path d="M57.275 79.063H20.329a1.723 1.723 0 01-1.6-2.366 6.644 6.644 0 016.198-4.197h27.75a6.647 6.647 0 016.2 4.197 1.724 1.724 0 01-1.602 2.365zm-36.718-1.876h36.49a4.778 4.778 0 00-4.37-2.812h-27.75a4.777 4.777 0 00-4.37 2.813z" fill="#3F446C"/><path d="M44.605 38.75h7.118v9.219h-7.118V38.75z" fill="#C5D0DC"/><path d="M54.44 36.172H33.894a1.914 1.914 0 000 3.828h20.548a1.914 1.914 0 100-3.828z" fill="#8CDBFF"/><path d="M54.438 40.938H33.892a2.852 2.852 0 010-5.704h20.544a2.852 2.852 0 110 5.703zm-20.545-3.829a.976.976 0 000 1.953h20.544a.977.977 0 100-1.953H33.894z" fill="#3F446C"/><path d="M51.722 48.906h-7.118a.937.937 0 01-.938-.937V40a.937.937 0 01.938-.938h7.118a.937.937 0 01.938.938v7.969a.938.938 0 01-.938.937zm-6.18-1.875h5.243v-6.093h-5.244v6.093z" fill="#3F446C"/><path d="M56.947 51.292l-2.175-3.053c2.494-1.777 10.632-8.35 10.632-18.348a20.388 20.388 0 00-6.678-15.444 23.625 23.625 0 00-18.013-5.938l-.325-3.735a27.36 27.36 0 0120.875 6.91 24.383 24.383 0 017.894 18.207c-.003 11.792-9.344 19.363-12.21 21.401z" fill="#607D8B"/><path d="M56.947 52.23a.933.933 0 01-.763-.394l-2.176-3.053a.936.936 0 01.22-1.308c2.401-1.71 10.239-8.035 10.239-17.584a19.47 19.47 0 00-6.375-14.75 22.7 22.7 0 00-17.298-5.695.938.938 0 01-1.016-.853l-.324-3.735a.936.936 0 01.852-1.017 28.298 28.298 0 0121.588 7.151 25.307 25.307 0 018.198 18.899c0 12.24-9.645 20.062-12.601 22.165a.927.927 0 01-.544.174zm-.878-3.786l1.088 1.528c3.37-2.58 11.062-9.62 11.062-20.081a23.453 23.453 0 00-7.594-17.516 26.337 26.337 0 00-19.22-6.732l.162 1.868a24.522 24.522 0 0117.793 6.245 21.303 21.303 0 016.982 16.135c0 9.582-7.102 16.116-10.273 18.553z" fill="#3F446C"/><path d="M76.27 69.211c1.36-2.364 3.739-4.805.813-8-1.914-2.09-11.187-8.99-15.022-11.654-2.335-1.625-3.767-1.828-6.605-1.986-5.073-.284-20.274-1.368-20.274-1.368a3.426 3.426 0 01-2.067-.813c-2.67-2.265-11.48-10.366-14.855-11.711-4.086-1.629-7.578 1.817-8.743 3.018L31.25 53.14l26.813 2.016L76.27 69.211z" fill="#8CDBFF"/><path d="M58.57 58.59a6.553 6.553 0 00-3.574-1.352c-4.947-.325-15.96-1.05-21.163-1.451a9.363 9.363 0 01-4.975-1.888L9.941 39.532a2.05 2.05 0 01-.648-2.47 2.002 2.002 0 011.542-1.124 1.979 1.979 0 011.466.4L31.284 51c.73.565 1.613.898 2.535.956l21.704 1.438a9.74 9.74 0 015.28 1.988l14.892 11.411a1.989 1.989 0 01-2.431 3.147L58.57 58.59z" fill="#607D8B"/><path d="M39.437 2.46a2.005 2.005 0 00-3.072-.618 2.076 2.076 0 00-.459 2.548l4.99 9.422a1.966 1.966 0 003.486-1.826l-4.945-9.525zM11.654 22.618c-2.798-4.406-6.607-4.707-9.164-3.34L9.387 32.25c2.557-1.367 5.05-5.25 2.267-9.632z" fill="#8CDBFF"/><path d="M10.036 29.714l-4.942-9.526a2.005 2.005 0 00-3.073-.618 2.076 2.076 0 00-.458 2.546L6.55 31.54a1.968 1.968 0 003.486-1.826z" fill="#607D8B"/><path d="M74.478 71.294a2.914 2.914 0 01-1.787-.612L58 59.333a5.592 5.592 0 00-3.063-1.16l-.306-.02c-5.117-.337-15.764-1.038-20.867-1.432a10.284 10.284 0 01-5.47-2.076L9.374 40.278a2.987 2.987 0 01-.927-3.621 2.953 2.953 0 012.261-1.646 2.904 2.904 0 012.167.586l18.982 14.661a3.68 3.68 0 002.022.763l21.704 1.438a10.63 10.63 0 015.791 2.178l14.89 11.412a2.926 2.926 0 01-1.785 5.245h-.002zM11.087 36.861a1.062 1.062 0 00-.951.61 1.117 1.117 0 00.378 1.318l18.911 14.364a8.423 8.423 0 004.478 1.699c5.095.393 15.735 1.094 20.849 1.43l.305.02a7.471 7.471 0 014.086 1.547l14.694 11.349a1.05 1.05 0 101.284-1.664L60.233 56.125a8.766 8.766 0 00-4.772-1.796l-21.703-1.437a5.557 5.557 0 01-3.047-1.15l-18.983-14.66a1.044 1.044 0 00-.641-.22z" fill="#3F446C"/><path d="M76.27 70.149a.938.938 0 01-.812-1.405c.201-.35.425-.704.65-1.06 1.429-2.25 2.206-3.738.282-5.84-1.75-1.913-10.692-8.615-14.867-11.517-2.113-1.469-3.357-1.666-6.125-1.82-5.021-.281-20.135-1.358-20.287-1.37a4.37 4.37 0 01-2.608-1.032 175.645 175.645 0 01-1.992-1.737c-3.49-3.067-9.987-8.776-12.602-9.819-2.393-.953-4.993-.012-7.723 2.801a.938.938 0 01-1.346-1.306c4.125-4.25 7.586-4.104 9.763-3.236 2.92 1.163 9.323 6.79 13.147 10.151.813.713 1.489 1.31 1.968 1.716.421.357.948.564 1.5.591.176.012 15.277 1.088 20.284 1.368 3.017.17 4.599.424 7.087 2.154 3.606 2.506 13.12 9.54 15.18 11.79 2.991 3.266 1.215 6.063-.081 8.11-.212.334-.42.663-.61.99a.938.938 0 01-.808.47zM8.283 33.526a2.894 2.894 0 01-2.563-1.548L.734 22.554a3.019 3.019 0 01.687-3.709 2.99 2.99 0 012.77-.546 2.936 2.936 0 011.734 1.457l4.943 9.526a2.91 2.91 0 01-2.585 4.243zM3.313 20.04a1.105 1.105 0 00-.702.256 1.145 1.145 0 00-.217 1.388l4.984 9.418a1.03 1.03 0 001.825-.956l-4.942-9.527a1.067 1.067 0 00-.625-.53 1.08 1.08 0 00-.323-.049zm39.316-4.242a2.894 2.894 0 01-2.563-1.547L35.08 4.827a3.02 3.02 0 01.687-3.709 2.985 2.985 0 012.772-.545 2.932 2.932 0 011.732 1.455l4.943 9.526a2.908 2.908 0 01-2.585 4.243v.001zm-4.97-13.485a1.109 1.109 0 00-.7.255 1.146 1.146 0 00-.218 1.389l4.984 9.418a1.03 1.03 0 001.825-.957l-4.943-9.526a1.067 1.067 0 00-.947-.58z" fill="#3F446C"/><path d="M9.388 33.188a.937.937 0 01-.443-1.765 5.892 5.892 0 002.824-3.59 5.815 5.815 0 00-.906-4.714c-2.54-4-5.86-4.125-7.93-3.015a.938.938 0 01-.886-1.653c3-1.606 7.375-1.094 10.4 3.664a7.714 7.714 0 011.135 6.198 7.818 7.818 0 01-3.75 4.766.929.929 0 01-.444.108z" fill="#3F446C"/></g><defs><clipPath id="clip0_1_3346"><path fill="#fff" d="M0 0h80v80H0z"/></clipPath></defs></svg>