<svg width="75" height="75" fill="none" xmlns="http://www.w3.org/2000/svg"><g clip-path="url(#clip0_1_3372)"><path d="M28.75 54.862h17.5v16.413h-17.5V54.862z" fill="#AFBCCB"/><path d="M73.75 46.25v10a2.507 2.507 0 01-2.5 2.5H3.75a2.507 2.507 0 01-2.5-2.5v-10h72.5z" fill="#AFBCCB"/><path d="M70 46.25v10a2.507 2.507 0 01-2.5 2.5H3.75a2.507 2.507 0 01-2.5-2.5v-10H70z" fill="#C5D0DC"/><path d="M73.75 3.75v45H1.25v-45a2.507 2.507 0 012.5-2.5h67.5a2.488 2.488 0 012.5 2.5z" fill="#F5F5F5"/><path d="M70 3.75v45H1.25v-45a2.507 2.507 0 012.5-2.5H67.5a2.488 2.488 0 012.5 2.5z" fill="#F5F5F5"/><path d="M52.5 71.25v1.25c0 .69-.56 1.25-1.25 1.25h-27.5c-.69 0-1.25-.56-1.25-1.25v-1.25a5 5 0 015-5h20a5 5 0 015 5z" fill="#37474F"/><path d="M48.75 71.25v1.25c0 .69-.56 1.25-1.25 1.25H23.75c-.69 0-1.25-.56-1.25-1.25v-1.25a5 5 0 015-5h16.25a5 5 0 015 5z" fill="#C5D0DC"/><path d="M16.25 71.25v1.25c0 .69-.56 1.25-1.25 1.25H2.5c-.69 0-1.25-.56-1.25-1.25v-1.25a7.485 7.485 0 015.638-7.263c.2-.05.4-.087.612-.124a7.005 7.005 0 012.5 0 7.287 7.287 0 014.05 2.087 7.432 7.432 0 012.2 5.3z" fill="#63C0F8"/><path d="M12.5 71.25v1.25c0 .69-.56 1.25-1.25 1.25H2.5c-.69 0-1.25-.56-1.25-1.25v-1.25a7.485 7.485 0 015.638-7.263A7.528 7.528 0 0112.5 71.25z" fill="#8CDBFF"/><path d="M52.563 22.8a50.316 50.316 0 01-2.75 5.025 15.943 15.943 0 00-1.888 5.663c-.025.25-.062.487-.087.737l-4.4 9.438a3.79 3.79 0 01-1.526-2.1 37.458 37.458 0 01-1.887-8.175c-.362-2.6-1.562-3.125-2.538-3.238-.45.035-.88.2-1.237.475a3.955 3.955 0 00-1.288 2.763c-.624 4.537-1.9 10.362-3.787 10.362a2.084 2.084 0 01-1.475-.6 7.282 7.282 0 01-1.55-3.313 40.383 40.383 0 01-1.075-6.35 15.94 15.94 0 00-1.888-5.662 47.873 47.873 0 01-2.762-5.025c-1.6-4.088-1.975-9.55 1.438-12.813a9.165 9.165 0 015.387-2.412 10.918 10.918 0 017 1.563c.445.272.864.586 1.25.937a10.162 10.162 0 015.75-2.5c.42-.05.84-.075 1.263-.075a9.485 9.485 0 016.625 2.487c3.4 3.263 3.025 8.725 1.425 12.813z" fill="#CFD8DC"/><path d="M49.177 22.8a50.214 50.214 0 01-2.75 5.025 15.951 15.951 0 00-1.887 5.663c-.025.25-.063.487-.088.737l-3.424 7.338a37.457 37.457 0 01-1.888-8.175c-.362-2.6-1.563-3.125-2.537-3.238a10.678 10.678 0 00-1.788-.062 4.86 4.86 0 00-1.2.162 2.32 2.32 0 00-1.25.9 4.963 4.963 0 00-.788 2.238c-.5 3.662-1.425 8.162-2.762 9.762a7.287 7.287 0 01-1.55-3.313 40.37 40.37 0 01-1.075-6.35 15.952 15.952 0 00-1.888-5.662A47.768 47.768 0 0121.54 22.8c-1.6-4.088-1.975-9.55 1.437-12.813a9.167 9.167 0 015.388-2.412c2.137.237 4.212-1.412 5.75 0 .387-.35.8 1.825 1.25 1.563a8.32 8.32 0 011.25.937 10.166 10.166 0 015.75-2.5 9.164 9.164 0 015.385 2.412c3.402 3.263 3.027 8.725 1.427 12.813z" fill="#F5F5F5"/><path d="M65.563 56.562l1.262 2.188 6.612 11.45a2.366 2.366 0 11-4.1 2.362l-7.874-13.637 1.114-3.04 2.986.677z" fill="#A56F49"/><path d="M65.837 56.4l-.274.162-3.788 2.188-.312.175-.275.163a1.225 1.225 0 01-.613.162h-.012a1.233 1.233 0 01-1-.5.674.674 0 01-.088-.113l-2.087-3.6 4.425-2.55 2.412-1.387 2.075 3.587c.34.602.134 1.365-.463 1.713z" fill="#C38E69"/><path d="M63.337 57.65l-.274.163-2.488 1.437h-.012a1.233 1.233 0 01-1-.5.674.674 0 01-.088-.113l-2.087-3.6 4.425-2.55 1.987 3.45c.34.602.134 1.365-.462 1.713z" fill="#C38E69"/><path d="M61.15 53.65a11.86 11.86 0 01-13.6-1.262 11.375 11.375 0 01-2.388-2.825c-.05-.075-.1-.15-.15-.238-3.261-5.65-1.325-12.876 4.326-16.138a11.233 11.233 0 014.05-1.424 11.76 11.76 0 019.774 2.887c.921.823 1.702 1.79 2.313 2.863 3.262 5.65 1.325 12.875-4.325 16.137z" fill="#63C0F8"/><path d="M57.4 53.65a11.701 11.701 0 01-4.025 1.425 11.78 11.78 0 01-5.825-2.687 11.376 11.376 0 01-2.388-2.825c-.05-.075-.1-.15-.15-.238-3.261-5.65-1.325-12.876 4.326-16.138a11.233 11.233 0 014.05-1.424 11.754 11.754 0 016.025 2.887c.92.823 1.701 1.79 2.312 2.863 3.262 5.65 1.325 12.875-4.325 16.137z" fill="#8CDBFF"/><path d="M55.262 56.482a13.062 13.062 0 01-4.493-25.335 13.062 13.062 0 0115.786 5.742 13.059 13.059 0 01-11.293 19.593zm-.039-23.624a10.562 10.562 0 00-5.252 19.714 10.562 10.562 0 0014.42-14.435 10.5 10.5 0 00-9.168-5.278v-.001z" fill="#606060"/><path d="M73.75 50h-7.975a1.25 1.25 0 010-2.5H72.5V3.75c0-.69-.56-1.25-1.25-1.25H3.75c-.69 0-1.25.56-1.25 1.25V47.5h42.2a1.25 1.25 0 010 2.5H1.25C.56 50 0 49.44 0 48.75v-45A3.75 3.75 0 013.75 0h67.5A3.75 3.75 0 0175 3.75v45c0 .69-.56 1.25-1.25 1.25z" fill="#3F446C"/><path d="M71.25 60h-4.425a1.25 1.25 0 010-2.5h4.425c.69 0 1.25-.56 1.25-1.25V50h-6.725a1.25 1.25 0 010-2.5h7.975c.69 0 1.25.56 1.25 1.25v7.5A3.75 3.75 0 0171.25 60zm-11.687 0H3.75A3.75 3.75 0 010 56.25v-7.5c0-.69.56-1.25 1.25-1.25H44.7a1.25 1.25 0 010 2.5H2.5v6.25c0 .69.56 1.25 1.25 1.25h55.813a1.25 1.25 0 010 2.5z" fill="#3F446C"/><path d="M46.25 67.5h-17.5c-.69 0-1.25-.56-1.25-1.25v-7.5c0-.69.56-1.25 1.25-1.25h17.5c.69 0 1.25.56 1.25 1.25v7.5c0 .69-.56 1.25-1.25 1.25zM30 65h15v-5H30v5z" fill="#3F446C"/><path d="M52.5 75h-30c-.69 0-1.25-.56-1.25-1.25v-2.5A6.257 6.257 0 0127.5 65h20a6.257 6.257 0 016.25 6.25v2.5A1.25 1.25 0 0152.5 75zm-28.75-2.5h27.5v-1.25a3.75 3.75 0 00-3.75-3.75h-20a3.75 3.75 0 00-3.75 3.75v1.25zM15 75H2.5A2.5 2.5 0 010 72.5v-1.25a8.75 8.75 0 018.75-8.75 8.75 8.75 0 018.75 8.75v1.25A2.5 2.5 0 0115 75zM8.75 65a6.257 6.257 0 00-6.25 6.25v1.25H15v-1.25A6.257 6.257 0 008.75 65z" fill="#3F446C"/><path d="M8.75 68.75c-.69 0-1.25-.56-1.25-1.25v-3.75a1.25 1.25 0 012.5 0v3.75c0 .69-.56 1.25-1.25 1.25zM31.171 45c-2.929 0-3.81-3.271-4.232-4.844a41.21 41.21 0 01-1.11-6.533 14.5 14.5 0 00-1.75-5.21c-.318-.595-.664-1.166-1.009-1.736a22.411 22.411 0 01-1.808-3.427c-1.725-4.399-2.175-10.433 1.73-14.174C26.96 5.272 34.13 5.305 38.34 9.15A1.252 1.252 0 0136.654 11c-3.233-2.951-8.92-3-11.931-.115-3.013 2.885-2.5 7.978-1.133 11.455.453 1.06.997 2.08 1.625 3.048a33.59 33.59 0 011.075 1.853 16.944 16.944 0 012.027 6.104c.182 2.076.53 4.135 1.038 6.156.393 1.46.886 3 1.82 3 .3-.196 1.582-2.293 2.558-9.286.463-3.279 2.227-4.153 3.625-4.307a1.25 1.25 0 11.276 2.484c-.376.041-1.137.126-1.427 2.172C34.61 45 32.11 45 31.171 45z" fill="#3F446C"/><path d="M47.838 35.475h-.124a1.25 1.25 0 01-1.125-1.369l.087-.737c.28-2.152.968-4.231 2.028-6.125a35.59 35.59 0 011.087-1.875 19.95 19.95 0 001.603-3.015c1.426-3.645 1.88-8.568-1.125-11.454-3.007-2.886-8.694-2.854-11.927.1a1.25 1.25 0 01-1.684-1.848C40.874 5.306 48.04 5.276 52 9.088c3.895 3.737 3.442 9.77 1.721 14.168a22.26 22.26 0 01-1.791 3.397c-.349.577-.699 1.154-1.018 1.757a14.597 14.597 0 00-1.75 5.217l-.085.722a1.25 1.25 0 01-1.239 1.126zm-4.424 9.435a1.211 1.211 0 01-.463-.095c-.683-.289-2.761-1.167-4.164-11.25-.283-2.034-1.03-2.125-1.432-2.169a1.25 1.25 0 11.29-2.483c1.399.163 3.162 1.043 3.617 4.307.974 6.99 2.25 9.083 2.667 9.299.604.312.863 1.038.594 1.662a1.24 1.24 0 01-1.11.73z" fill="#3F446C"/><path d="M42.606 18.038a1.25 1.25 0 01-1.199-.9c-.916-3.124-4.64-6.045-4.677-6.074a1.251 1.251 0 111.533-1.976c.178.138 4.397 3.443 5.543 7.346a1.25 1.25 0 01-1.2 1.604zm-17.567.927a1.25 1.25 0 01-1.222-.991A6.688 6.688 0 0127 10.736a1.25 1.25 0 011.205 2.19 4.209 4.209 0 00-1.936 4.53 1.251 1.251 0 01-1.23 1.51zm30.223 37.517a13.062 13.062 0 01-4.493-25.335 13.062 13.062 0 0115.786 5.742 13.059 13.059 0 01-11.293 19.593zm-.039-23.624a10.562 10.562 0 00-5.252 19.714 10.562 10.562 0 0014.42-14.435 10.5 10.5 0 00-9.168-5.278v-.001zM71.392 75c-.319 0-.637-.042-.945-.125a3.589 3.589 0 01-2.197-1.692L60.375 59.55a1.252 1.252 0 011.081-1.882 1.25 1.25 0 011.084.632l7.875 13.638a1.108 1.108 0 001.516.417c.539-.31.725-.996.416-1.535l-7.874-13.633a1.249 1.249 0 112.164-1.25l7.876 13.638a3.642 3.642 0 01-1.33 4.943 3.58 3.58 0 01-1.79.482z" fill="#3F446C"/><path d="M60.555 60.506a2.469 2.469 0 01-1.955-.956 2.127 2.127 0 01-.16-.211l-2.134-3.675a1.25 1.25 0 012.163-1.25l2.087 3.601.607-.351 4.038-2.336-2.058-3.603a1.25 1.25 0 012.164-1.25l2.075 3.589a2.53 2.53 0 01-.915 3.417l-4.643 2.684a2.534 2.534 0 01-1.269.341zM48.75 46.25a1.25 1.25 0 01-1.231-1.044 8.054 8.054 0 013.154-8.405 10.716 10.716 0 014.125-1.783 1.25 1.25 0 01.416 2.464c-.642.112-6.235 1.265-5.228 7.312a1.25 1.25 0 01-1.236 1.456z" fill="#3F446C"/></g><defs><clipPath id="clip0_1_3372"><path fill="#fff" d="M0 0h75v75H0z"/></clipPath></defs></svg>