<svg width="208" height="54" fill="none" xmlns="http://www.w3.org/2000/svg"><path fill-rule="evenodd" clip-rule="evenodd" d="M30.997 14.678c7.61.165 9.007 7.517 9.007 16.067 0 5.343-3.132 14.55-6.454 18.217-2.516 2.776-3.157 3.793-6.135 4.295-4.132.535-1.772-11.87-7.226-11.464-4.35-.039-2.333 10.433-5.568 11.355-1.367.39-4.454-1.037-7.767-5.316C4.15 44.337.936 35.393.936 30.629c0-8.38.623-14.81 8.018-15.671 4.247.186 6.015 2.528 11.832 2.528 6.832-.407 6.174-2.846 10.211-2.808z" fill="#93C12F"/><path d="M66.235 44.245l1.113 6.75h7.594l-6.227-34.21h-9.517l-7.239 34.21h7.594l1.164-6.75h5.518zm-4.759-6.04l1.013-6.498c.304-1.827.81-5.634 1.164-7.766h.101c.304 2.132.76 5.838 1.013 7.766l.86 6.498h-4.15zm15.906 12.79h7.846V15.87h-7.846v35.126zm13.627-34.21c-.608 4.263-1.975 8.476-3.603 13.247l3.906-.507c2.531-4.264 4.657-8.477 6.176-13.248l-6.48.507zm23.397-.915v12.081h-.102c-.506-1.117-1.67-2.335-4.049-2.335-4.354 0-8.201 4.315-8.201 12.944 0 6.395 2.177 12.85 7.948 12.85 2.126 0 4.201-1.328 5.163-3.105h.101l.405 2.69h6.733c-.102-2.639-.203-5.329-.203-7.968V15.87h-7.795zm0 26.344c0 .66-.102 1.168-.254 1.523-.354.914-.961 1.27-1.67 1.27-1.417 0-2.683-1.727-2.683-6.244 0-3.655.759-6.548 2.683-6.548 1.114 0 1.569 1.015 1.822 2.081.102.457.102.965.102 1.37v6.548zm30.484-.456c.152-.762.253-1.878.253-4.01 0-8.376-3.594-12.132-9.061-12.132-5.873 0-10.631 4.975-10.631 13.502 0 7.868 3.999 12.19 11.137 12.19 2.733 0 5.568-.464 7.39-1.124l-.961-5.584c-1.316.406-3.038.812-5.012.812-2.986 0-4.91-1.37-5.011-3.654h11.896zm-11.896-5.431c0-2.132.708-5.077 2.683-5.077 2.025 0 2.429 2.64 2.429 5.077h-5.112zm15.399 14.669h7.846V36.022c0-1.015.202-1.878.405-2.335.456-.965 1.114-1.472 1.974-1.472 1.569 0 2.025 1.624 2.025 3.35v15.43h7.846V35.312c0-5.38-1.62-9.695-6.884-9.695-2.582 0-4.809 1.27-6.176 3.249h-.101l-.405-2.843h-6.733c.101 2.538.203 5.33.203 7.97v17.004zm25.371-29.44v4.466h-2.886v5.482h2.886v10.66c0 4.111.86 6.141 2.379 7.512 1.316 1.168 3.138 1.633 5.214 1.633 1.924 0 3.543-.203 4.556-.465v-6.142a11.09 11.09 0 01-1.822.152c-1.266 0-2.481-.66-2.481-3.4v-9.95h4.91v-5.482h-4.91v-6.75l-7.846 2.284zm33.724 15.075c0-4.822-.861-11.015-9.517-11.015-3.898 0-7.037 1.218-8.555 2.03l1.367 5.229c1.62-.965 3.29-1.523 5.467-1.523 2.024 0 3.29 1.066 3.29 2.436v.457c-5.619.051-11.693 2.69-11.693 9.39 0 4.468 2.885 7.775 6.834 7.775 2.227 0 4.252-.871 5.72-2.8h.101l.405 2.386h6.986c-.304-1.726-.405-3.706-.405-5.736v-8.629zm-7.695 6.599c0 .406-.05.76-.152 1.015-.455 1.117-1.518 1.472-2.328 1.472-.861 0-2.126-.812-2.126-2.944 0-2.64 2.328-3.553 4.606-3.604v4.06z" fill="#3C5D3B"/><path fill-rule="evenodd" clip-rule="evenodd" d="M19.222 14.865s-.133-5.667 3.343-10.074C25.83.651 33.205-.539 33.841.167c.656.728.142 8.162-3.808 11.372-4.767 3.874-10.81 3.326-10.81 3.326z" fill="#B0CB1F"/><path fill-rule="evenodd" clip-rule="evenodd" d="M19.197 14.769s-.006-.248.017-.68L33.455-.078c.176.032.3.082.361.15.656.728.142 8.162-3.809 11.372-4.766 3.875-10.81 3.326-10.81 3.326z" fill="#009846"/></svg>